# xmcd
#
# Track frame offsets: 
#        150
#        17662
#        27383
#        48099
#        61159
#        77100
#        96695
#        115658
#        129440
#        148165
#        158674
#        179642
#        193643
#
# Disc length: 2875 seconds
#
# Revision: 0
# Processed by: cddbd v1.5.2PL0 Copyright (c) Steve Scherf et al.
# Submitted via: ExactAudioCopy v0.95a5
#
DISCID=af0b390d
DTITLE=Chase The Sun - Chase Tthe Sun
DYEAR=2007
DGENRE=Blues
TTITLE0=You Gotta Go
TTITLE1=I'm Going To Hell
TTITLE2=Lady On My Mind
TTITLE3=Instrumental
TTITLE4=Last Goodbye
TTITLE5=This Lonely Road
TTITLE6=In My Hands
TTITLE7=Great Mystery
TTITLE8=Gypsy Woman
TTITLE9=Catch the Rabbit
TTITLE10=Come Back Around
TTITLE11=Farewell
TTITLE12=Movin' On
EXTD=
EXTT0=
EXTT1=
EXTT2=
EXTT3=
EXTT4=
EXTT5=
EXTT6=
EXTT7=
EXTT8=
EXTT9=
EXTT10=
EXTT11=
EXTT12=
PLAYORDER=
